<?xml version="1.0"?>
<svg xmlns="http://www.w3.org/2000/svg" viewBox="0 0 2540 750">
  <path fill="#097E93" d="M404.365 253.06c20.434 0 39.636 5.1 57.62 15.325 17.983 10.22 32.012 24.085 42.094 41.596 10.087 17.522 15.128 36.428 15.128 56.724 0 20.44-5.074 39.552-15.23 57.328-10.145 17.78-23.978 31.678-41.5 41.695-17.51 10.02-36.82 15.038-57.916 15.038-31.052 0-57.556-11.06-79.518-33.153-21.958-22.084-32.936-48.923-32.936-80.505 0-33.833 12.406-62.03 37.218-84.592 21.76-19.638 46.773-29.454 75.04-29.454zm.89 51.148c-16.878 0-30.933 5.874-42.167 17.627-11.228 11.738-16.848 26.76-16.848 45.076 0 18.843 5.55 34.104 16.657 45.778 11.096 11.684 25.146 17.51 42.163 17.51 17.006 0 31.163-5.9 42.46-17.712 11.297-11.806 16.954-27.003 16.954-45.575 0-18.576-5.556-33.666-16.65-45.288-11.102-11.604-25.285-17.414-42.568-17.414zM657.184 253.06c20.433 0 39.643 5.1 57.625 15.325 17.977 10.22 32.01 24.085 42.093 41.596 10.082 17.522 15.13 36.428 15.13 56.724 0 20.44-5.08 39.552-15.226 57.328-10.155 17.78-23.99 31.678-41.5 41.695-17.516 10.02-36.824 15.038-57.922 15.038-31.05 0-57.555-11.06-79.513-33.153-21.962-22.084-32.946-48.923-32.946-80.505 0-33.833 12.41-62.03 37.223-84.592 21.766-19.638 46.773-29.454 75.034-29.454zm.896 51.148c-16.88 0-30.94 5.874-42.162 17.627-11.24 11.738-16.847 26.76-16.847 45.076 0 18.843 5.545 34.104 16.646 45.778 11.095 11.684 25.157 17.51 42.168 17.51 17.007 0 31.163-5.9 42.466-17.712 11.292-11.806 16.948-27.003 16.948-45.575 0-18.576-5.556-33.666-16.65-45.288-11.103-11.604-25.285-17.414-42.568-17.414zM808.702 175.04h54.335v172.87l80.01-89.277h68.24l-93.283 103.794 104.44 112.756h-67.45l-91.958-99.8v99.8H808.7V175.04zM1082.183 169.462c9.525 0 17.702 3.455 24.516 10.358 6.806 6.898 10.212 15.256 10.212 25.072 0 9.688-3.375 17.95-10.117 24.785-6.756 6.823-14.82 10.252-24.218 10.252-9.658 0-17.893-3.493-24.707-10.455s-10.22-15.425-10.22-25.374c0-9.556 3.37-17.717 10.114-24.482 6.75-6.765 14.89-10.156 24.42-10.156zm-27.168 89.17h54.335v216.552h-54.335v-216.55zM1166.82 258.633h54.343v22.19c12.32-10.38 23.485-17.6 33.48-21.676 9.998-4.054 20.244-6.086 30.708-6.086 21.476 0 39.687 7.5 54.66 22.483 12.592 12.745 18.886 31.593 18.886 56.543v143.097h-53.736V380.35c0-25.846-1.174-43.006-3.486-51.48-2.314-8.49-6.352-14.942-12.104-19.388-5.77-4.437-12.878-6.665-21.348-6.665-10.988 0-20.423 3.672-28.297 11.036-7.874 7.36-13.334 17.533-16.385 30.522-1.582 6.754-2.377 21.405-2.377 43.924v86.883h-54.342v-216.55z"/>
  <path fill="#87C66E" d="M1925.098 258.633h54.935v104.304c0 20.296 1.396 34.395 4.182 42.29 2.79 7.89 7.274 14.03 13.473 18.413 6.177 4.372 13.802 6.558 22.848 6.558 9.048 0 16.73-2.154 23.04-6.462 6.32-4.31 11.01-10.65 14.07-19.008 2.268-6.234 3.393-19.58 3.393-40.003V258.633h54.33v91.75c0 37.82-2.978 63.7-8.952 77.63-7.286 16.99-18.047 30.026-32.246 39.105-14.193 9.095-32.246 13.647-54.145 13.647-23.734 0-42.938-5.312-57.614-15.93-14.656-10.612-24.972-25.416-30.945-44.38-4.246-13.14-6.368-37.032-6.368-71.655v-90.167z"/>
  <path fill="#097E93" d="M255.022 309.98c-10.083-17.51-24.11-31.375-42.095-41.595-17.982-10.225-37.185-15.324-57.62-15.324-21.288 0-40.72 5.578-58.315 16.72v-94.614h-53.94v191.94c0 31.583 10.978 58.422 32.934 80.506 21.962 22.095 48.467 33.153 79.52 33.153 21.097 0 40.406-5.02 57.916-15.038 17.52-10.018 31.354-23.915 41.5-41.695 10.156-17.776 15.23-36.89 15.23-57.328-.002-20.296-5.042-39.202-15.13-56.723zm-56.558 102.505c-11.297 11.812-25.454 17.712-42.46 17.712-17.012 0-31.068-5.826-42.164-17.51-11.105-11.674-16.656-26.935-16.656-45.777 0-18.317 5.62-33.338 16.848-45.076 11.233-11.753 25.29-17.627 42.168-17.627 17.282 0 31.466 5.81 42.566 17.415 11.095 11.62 16.65 26.712 16.65 45.29 0 18.57-5.65 33.768-16.952 45.573z"/>
  <path fill="#87C66E" d="M1874.784 309.98c-10.076-17.51-24.117-31.375-42.084-41.595-17.98-10.225-37.19-15.324-57.63-15.324-21.278 0-40.72 5.578-58.305 16.72v-94.614h-53.942v191.94c0 31.583 10.973 58.422 32.93 80.506 21.962 22.095 48.473 33.153 79.524 33.153 21.093 0 40.406-5.02 57.917-15.038 17.505-10.018 31.34-23.915 41.5-41.695 10.155-17.776 15.224-36.89 15.224-57.328 0-20.296-5.035-39.202-15.134-56.723zm-56.548 102.505c-11.303 11.812-25.465 17.712-42.466 17.712-17.017 0-31.072-5.826-42.163-17.51-11.105-11.674-16.656-26.935-16.656-45.777 0-18.317 5.62-33.338 16.85-45.076 11.232-11.753 25.288-17.627 42.174-17.627 17.27 0 31.454 5.81 42.56 17.415 11.096 11.62 16.656 26.712 16.656 45.29 0 18.57-5.657 33.768-16.954 45.573z"/>
  <path fill="#097E93" d="M1586.25 286.86c-21.958-22.09-48.467-33.136-79.52-33.136-21.097 0-40.406 5.01-57.923 15.027-17.51 10.014-31.342 23.917-41.5 41.708-10.15 17.775-15.227 36.878-15.227 57.307 0 20.312 5.046 39.224 15.132 56.73 10.076 17.514 24.117 31.39 42.094 41.594 17.98 10.22 37.182 15.33 57.62 15.33 21.126 0 40.726-5.61 58.21-16.584.14-.08-.033 16.18.105 16.1-.91 21.458-15.594 32.973-24.48 37.482-8.89 4.51-20.642 6.767-35.233 6.767-11.414 0-21.294-1.56-29.657-4.676-8.362-3.12-15.19-7.732-20.504-13.83h-59.91c4.785 14.727 12.14 27.228 22.1 37.51 9.948 10.284 22.158 18.08 36.622 23.39 14.46 5.308 32.31 7.967 53.545 7.967 39.803 0 69.59-11.676 89.362-35.032 14.724-17.256 22.096-44.19 22.096-80.813v-92.328c0-31.584-10.973-58.418-32.93-80.513zm-38.04 125.795c-11.238 11.748-25.296 17.617-42.175 17.617-17.28 0-31.46-5.81-42.57-17.416-11.09-11.614-16.646-26.71-16.646-45.282 0-18.583 5.65-33.77 16.947-45.585 11.296-11.807 25.463-17.72 42.466-17.72 17.015 0 31.072 5.85 42.16 17.533 11.113 11.674 16.657 26.924 16.657 45.77 0 18.307-5.617 33.345-16.84 45.082z"/>
  <g fill="#097E93">
    <path d="M2424.02 424.37h-15.954v-6.685h40.885v6.686h-15.976v35.87h-8.953v-35.87zM2453.292 417.686h12.866l14.912 33.016 14.783-33.016h12.724v42.556h-8.4l.35-35.16h-.095l-15.738 35.16h-7.635l-15.607-35.16h-.11l.344 35.16h-8.394v-42.556z"/>
  </g>
  <path fill="#87C66E" d="M2345.02 287.1c-21.964-22.09-48.473-33.143-79.514-33.143-21.108 0-40.406 5.015-57.933 15.028-17.51 10.018-31.34 23.91-41.5 41.696-10.14 17.782-15.224 36.884-15.224 57.33 0 20.29 5.052 39.2 15.126 56.722 10.082 17.51 24.117 31.38 42.105 41.596 17.968 10.22 37.176 15.318 57.615 15.318 21.12 0 40.72-5.604 58.214-16.57.128-.09-.032 16.178.095 16.093-.902 21.457-15.59 32.972-24.482 37.482-8.89 4.51-20.63 6.76-35.223 6.76-11.424 0-21.294-1.55-29.662-4.67-8.367-3.126-15.196-7.736-20.502-13.838h-59.912c4.785 14.74 12.134 27.242 22.1 37.524 9.953 10.284 22.154 18.08 36.624 23.392 14.464 5.306 32.31 7.947 53.538 7.947 39.803 0 69.598-11.663 89.367-35.02 14.726-17.25 22.09-44.19 22.09-80.803v-92.338c0-31.578-10.963-58.42-32.924-80.506zm-38.046 125.79c-11.233 11.747-25.29 17.61-42.163 17.61-17.287 0-31.47-5.8-42.577-17.414-11.094-11.616-16.64-26.696-16.64-45.278 0-18.583 5.642-33.773 16.938-45.58 11.297-11.802 25.465-17.712 42.467-17.712 17.02 0 31.072 5.836 42.168 17.51 11.105 11.684 16.65 26.935 16.65 45.782 0 18.306-5.61 33.338-16.84 45.08z"/>
</svg>
